<?xml version="1.0" encoding="UTF-8"?>
<svg id="Layer_1" data-name="Layer 1" xmlns="http://www.w3.org/2000/svg" viewBox="0 0 482.16 495.74">
  <defs>
    <style>
      .cls-1 {
        fill: #101720;
      }

      .cls-1, .cls-2 {
        stroke-width: 0px;
      }

      .cls-2 {
        fill: #fcbf49;
      }
    </style>
  </defs>
  <path class="cls-2" d="m482.16,329.37c-33.95,96.78-126.23,166.37-234.47,166.37-85.71,0-161.42-43.64-206.08-109.86l83.94-56.51h356.61Z"/>
  <path class="cls-2" d="m453.58,108.55L41.64,385.9C15.34,346.51,0,299.2,0,248.38,0,111.42,111.42,0,248.38,0c85.15,0,160.42,43.07,205.19,108.55Z"/>
  <path class="cls-1" d="m340.63,122.04l-178.48,120.17c-11.4-17.07-18.04-37.57-18.04-59.58,0-59.34,48.27-107.62,107.62-107.62,36.89,0,69.5,18.66,88.9,47.03Z"/>
</svg>